<?xml version="1.0" standalone="no"?>
<!DOCTYPE svg PUBLIC "-//W3C//DTD SVG 20010904//EN"
 "http://www.w3.org/TR/2001/REC-SVG-20010904/DTD/svg10.dtd">
<svg version="1.0" xmlns="http://www.w3.org/2000/svg"
 width="200.000000pt" height="200.000000pt" viewBox="0 0 200.000000 200.000000"
 preserveAspectRatio="xMidYMid meet">
<metadata>
Created by potrace 1.14, written by Peter Selinger 2001-2017
</metadata>
<g transform="translate(0.000000,200.000000) scale(0.100000,-0.100000)"
fill="#000000" stroke="none">
<path d="M0 1000 l0 -1000 1000 0 1000 0 0 1000 0 1000 -1000 0 -1000 0 0
-1000z m1422 184 c57 -37 83 -94 83 -184 0 -122 -47 -187 -151 -211 -61 -14
-119 0 -165 38 -90 76 -93 261 -6 341 61 56 167 64 239 16z m-774 -26 c-3 -49
-5 -53 -30 -56 -26 -3 -28 -1 -28 32 l0 36 -50 0 -50 0 2 -172 3 -173 28 -3
c15 -2 27 -9 27 -18 0 -11 -19 -14 -95 -14 -76 0 -95 3 -95 14 0 9 12 16 28
18 l27 3 3 173 2 172 -47 0 c-48 0 -48 0 -48 -32 0 -29 -4 -33 -27 -36 -28 -3
-28 -2 -28 52 l0 56 191 0 190 0 -3 -52z m358 21 c18 -18 28 -41 31 -71 4 -37
1 -49 -22 -76 -15 -18 -33 -32 -40 -32 -27 0 -23 -18 20 -92 32 -54 51 -77 70
-82 44 -11 31 -36 -19 -36 -57 0 -78 18 -130 110 -34 61 -47 76 -69 78 l-27 3
0 -80 c0 -74 2 -81 20 -81 11 0 20 -7 20 -15 0 -12 -16 -15 -85 -15 -69 0 -85
3 -85 15 0 9 9 15 25 15 l25 0 0 180 0 180 -25 0 c-16 0 -25 6 -25 16 0 13 18
15 145 12 141 -3 145 -4 171 -29z m724 16 c0 -8 -9 -15 -20 -15 -19 0 -20 -7
-20 -180 0 -173 1 -180 20 -180 11 0 20 -7 20 -15 0 -12 -16 -15 -80 -15 -64
0 -80 3 -80 15 0 8 9 15 20 15 19 0 20 7 20 180 0 173 -1 180 -20 180 -11 0
-20 7 -20 15 0 12 16 15 80 15 64 0 80 -3 80 -15z"/>
<path d="M1253 1161 c-38 -24 -53 -69 -53 -161 0 -92 15 -137 53 -161 42 -27
101 -20 136 15 25 26 26 31 26 146 0 115 -1 120 -26 146 -35 35 -94 42 -136
15z"/>
<path d="M820 1095 l0 -75 53 0 c66 0 87 19 87 77 0 54 -22 73 -88 73 l-52 0
0 -75z"/>
</g>
</svg>
