<svg width="221" height="214" viewBox="0 0 221 214" fill="none" xmlns="http://www.w3.org/2000/svg">
<g clip-path="url(#clip0)">
<path d="M5.32709 189.119H18.7781V192.932H10.1802V198.895H18.362V202.709H10.1802V213.317H5.32709V189.119Z" fill="#21578A"/>
<path d="M39.6817 182.705V186.727H35.6609V182.705H39.6817ZM28.5188 186.727V182.705H32.5407V186.727H28.5188ZM34.1005 209.92C39.0579 209.92 40.8953 205.517 40.8953 201.151C40.8953 196.885 38.9193 192.516 34.1005 192.516C29.2817 192.516 27.3052 196.885 27.3052 201.151C27.3052 205.517 29.1427 209.92 34.1005 209.92ZM34.1005 188.703C41.6927 188.703 45.9573 193.833 45.9573 201.151C45.9573 208.462 41.7625 213.733 34.1005 213.733C26.3349 213.733 22.2443 208.567 22.2443 201.151C22.2443 193.729 26.4041 188.703 34.1005 188.703Z" fill="#21578A"/>
<path d="M55.5937 199.449H57.189C59.5806 199.449 62.3197 199.103 62.3197 196.086C62.3197 193.175 59.615 192.932 57.189 192.932H55.5937V199.449ZM50.7401 189.119H55.975C61.175 189.119 67.3806 188.945 67.3806 195.669C67.3806 198.514 65.4745 200.872 62.3885 201.288V201.356C63.7062 201.459 64.4688 202.777 64.9541 203.852L68.8369 213.317H63.4292L60.5172 205.759C59.8234 203.957 59.1989 203.264 57.1541 203.264H55.5937V213.317H50.7401V189.119Z" fill="#21578A"/>
<path d="M86.1005 193.556C84.5751 192.897 82.876 192.516 81.1776 192.516C79.5136 192.516 77.364 193.244 77.364 195.88C77.364 200.073 87.9719 198.307 87.9719 206.419C87.9719 211.722 83.7771 213.733 78.8896 213.733C76.2547 213.733 75.076 213.386 72.6839 212.797L73.1349 208.429C74.7989 209.329 76.7052 209.92 78.612 209.92C80.4489 209.92 82.9109 208.984 82.9109 206.797C82.9109 202.19 72.3027 204.096 72.3027 196.086C72.3027 190.679 76.4973 188.703 80.7609 188.703C82.8417 188.703 84.7833 188.98 86.5511 189.569L86.1005 193.556Z" fill="#21578A"/>
<path d="M108.427 182.705V186.727H104.404V182.705H108.427ZM102.74 193.972H102.671L99.1698 203.957H106.242L102.74 193.972ZM97.2631 186.727V182.705H101.284V186.727H97.2631ZM100.071 189.119H105.549L115.047 213.317H109.674L107.594 207.769H97.7834L95.6688 213.317H90.6412L100.071 189.119Z" fill="#21578A"/>
<path d="M118.929 189.119H123.782V199.519L132.517 189.119H138.481L128.531 200.524L138.899 213.317H132.553L123.852 202.085H123.782V213.317H118.929V189.119Z" fill="#21578A"/>
<path d="M147.252 199.449H148.845C151.237 199.449 153.976 199.103 153.976 196.086C153.976 193.175 151.272 192.932 148.845 192.932H147.252V199.449ZM142.399 189.119H147.633C152.832 189.119 159.037 188.945 159.037 195.669C159.037 198.514 157.132 200.872 154.045 201.288V201.356C155.364 201.459 156.127 202.777 156.611 203.852L160.493 213.317H155.087L152.173 205.759C151.481 203.957 150.859 203.264 148.811 203.264H147.252V213.317H142.399V189.119Z" fill="#21578A"/>
<path d="M164.343 189.119H169.196V213.317H164.343V201.629V189.119Z" fill="#21578A"/>
<path d="M174.916 189.119H180.877L190.099 207.215H190.168V189.119H194.815V213.317H188.887L179.629 195.22H179.56V213.317H174.916V189.119Z" fill="#21578A"/>
<path d="M219.843 193.798C217.972 192.932 215.544 192.516 213.604 192.516C207.953 192.516 204.832 196.329 204.832 201.288C204.832 206.209 207.883 209.92 213.048 209.92C214.364 209.92 215.405 209.779 216.237 209.572V203.264H211.108V199.449H220.883V212.485C218.319 213.179 215.648 213.733 213.048 213.733C205.215 213.733 199.771 209.817 199.771 201.635C199.771 193.348 204.832 188.703 213.048 188.703C215.856 188.703 218.076 189.084 220.155 189.708L219.843 193.798Z" fill="#21578A"/>
<path d="M82.8708 73.6753C82.1495 68.9939 78.4912 51.1819 59.9307 48.8166C55.2875 48.2566 44.3964 48.0219 44.3964 48.0219H16.3688V69.5846C16.3688 69.5846 42.9287 69.5846 45.3453 69.5846C55.2891 69.5846 59.9437 74.3393 59.9437 84.1242C59.9849 84.1113 59.9437 93.5409 59.9437 93.5409C59.9437 93.5409 40.6041 93.5357 40.6188 93.5409C32.2995 93.4471 23.4631 94.5514 16.3917 99.0514C7.12918 104.947 2.97033e-06 115.768 2.97033e-06 129.385C-0.0041637 142.773 4.37448 154.131 18.3203 160.771C25.75 164.31 33.3369 164.47 42.3355 164.47C42.3464 164.459 84.0531 164.47 84.0531 164.47C84.0531 164.47 84.0563 87.3638 84.0531 87.3561C84.0531 85.6659 83.5901 78.3553 82.8708 73.6753ZM59.5672 142.374H42.1016C42.1016 142.374 35.3047 142.169 32.2317 140.942C29.1563 139.71 23.7943 136.601 23.7943 129.01C23.7943 121.416 28.9505 118.067 32.2317 116.762C35.424 115.491 42.1016 115.536 42.1016 115.536H59.5672V142.374Z" fill="#21578A"/>
<path d="M219.671 73.676C218.948 68.9973 215.289 51.184 196.731 48.8187C192.087 48.26 181.196 48.0253 181.196 48.0253H153.167V69.5867C153.167 69.5867 179.727 69.5867 182.143 69.5867C192.087 69.5867 196.744 74.3413 196.744 84.1276C196.785 84.112 196.744 93.5443 196.744 93.5443C196.744 93.5443 177.404 93.5364 177.417 93.5416C169.099 93.4479 160.261 94.5547 153.192 99.0547C143.927 104.951 136.799 115.771 136.799 129.388C136.795 142.773 141.173 154.132 155.12 160.775C162.548 164.314 170.137 164.472 179.135 164.472C179.144 164.463 220.853 164.472 220.853 164.472C220.853 164.472 220.855 87.3656 220.853 87.3593C220.853 85.6683 220.388 78.3587 219.671 73.676ZM196.365 142.377H178.9C178.9 142.377 172.104 142.172 169.031 140.945C165.955 139.714 160.592 136.604 160.592 129.01C160.592 121.419 165.749 118.07 169.031 116.766C172.223 115.495 178.9 115.539 178.9 115.539H196.365V142.377Z" fill="#21578A"/>
<path d="M122.112 164.473H98.0034C98.0034 164.473 97.9957 56.6053 98.0034 56.6053C98.0034 37.8707 98.855 29.824 101.829 22.652C107.207 9.68402 121.271 0.00933838 138.333 0.00134277L139.598 0V21.4894C139.598 21.4894 136.745 21.376 135.43 21.696C132.182 22.4853 122.006 25.7147 122.112 41.4587C122.094 41.4587 122.112 48.024 122.112 48.024H140.283V69.5853H122.112V164.473Z" fill="#21578A"/>
</g>
<defs>
<clipPath id="clip0">
<rect width="220.88" height="213.733" fill="white"/>
</clipPath>
</defs>
</svg>
