<?xml version="1.0" encoding="UTF-8"?>
<!-- Generator: Adobe Illustrator 14.0.0, SVG Export Plug-In . SVG Version: 6.00 Build 43363)  -->
<!DOCTYPE svg PUBLIC "-//W3C//DTD SVG 1.1//EN" "http://www.w3.org/Graphics/SVG/1.1/DTD/svg11.dtd">
<svg version="1.1" xmlns="http://www.w3.org/2000/svg" x="0px" y="0px" width="57px" height="57.2px">
<g id="a" transform="matrix(0.156731, 0, 0, 0.156731, 21.1556, -15.8298)">
	<path id="b" fill="#ED1F24" d="M228.6,283.5c0,100.8-81.4,182.5-181.8,182.5S-135,384.3-135,283.5S-53.6,101,46.8,101 S228.6,182.7,228.6,283.5z"/>
	<path id="c" fill="#FFFFFF" d="M59,416c-2,0-4-2-4-4c0-1,0-29,0-29s-125,1-126,1c-2,0-4-2-4-4s3-6,3-6L97,125 c0,0,1.6-2,3.6-2s3.4,2,3.4,4c0,1,0,210,0,210h25c2,0,4,2,4,4c0,0,0,37,0,38c0,2-2,4-4,4c-1,0-25,0-25,0v29c0,2-2,4-4,4 C100,416,60,416,59,416z"/>
	<path id="d" fill="#ED1F24" d="M54,337H8H7l47-69V337z"/>
</g>
</svg>